<svg width="32" height="39" viewBox="0 0 32 39" fill="none" xmlns="http://www.w3.org/2000/svg">
<path d="M26.2045 20.6839C26.1608 15.8479 30.1643 13.4955 30.3473 13.3862C28.08 10.0807 24.5663 9.62879 23.3314 9.59316C20.3797 9.28221 17.5172 11.3593 16.0142 11.3593C14.4805 11.3593 12.1653 9.62313 9.67037 9.67414C6.45958 9.72354 3.4561 11.5828 1.80819 14.4697C-1.59127 20.356 0.944154 29.0053 4.2011 33.7635C5.83038 36.0949 7.73418 38.6951 10.2267 38.6036C12.6649 38.5048 13.5759 37.0504 16.5179 37.0504C19.4331 37.0504 20.2882 38.6036 22.8301 38.5445C25.4474 38.504 27.0944 36.2042 28.667 33.8526C30.5498 31.1836 31.3061 28.5518 31.3361 28.4165C31.2754 28.3963 26.2555 26.4787 26.2045 20.6839ZM21.4033 6.46255C22.7143 4.82274 23.6116 2.59179 23.363 0.327637C21.4648 0.411854 19.0914 1.64029 17.7245 3.24447C16.5155 4.65754 15.4352 6.97433 15.7138 9.15345C17.8459 9.31217 20.0348 8.07725 21.4033 6.46255Z" fill="white"/>
</svg>
